<svg xmlns="http://www.w3.org/2000/svg" width="518.562" height="385.5" viewBox="0 0 518.562 385.5"><defs><style>.cls-1 { fill-rule: evenodd; }</style></defs><path id="CLUB" class="cls-1" d="M109.76 60.31a104.61 104.61 0 0 1-11.915 7.23q-6.418 3.356-13.417 6.188T70.49 78.644q-1.97 6.94-3.875 13.59t-3.528 13.24a11.74 11.74 0 0 1-2.2 3.47 4.895 4.895 0 0 1-3.586 1.158 13.338 13.338 0 0 1-3.006-.347l-5.552-1.85a25.12 25.12 0 0 1-4.916-2.2 11.287 11.287 0 0 1-3.47-3.124 7.93 7.93 0 0 1-1.33-4.74 15.055 15.055 0 0 1 .925-4.512 47.853 47.853 0 0 0 3.182-9.66q1.675-6.766 3.47-15.383t3.643-17.87q1.85-9.253 3.644-17.12t3.527-13.244q1.736-5.378 3.24-6.187 4.392-2.2 9.54-4.453T80.84 5.303a98.793 98.793 0 0 1 10.93-3.007 50.1 50.1 0 0 1 10.41-1.157 28.464 28.464 0 0 1 8.908 1.33 16.6 16.6 0 0 1 7.055 4.568q1.85 2.082 3.875 4.8a45.15 45.15 0 0 1 3.7 5.9 38.535 38.535 0 0 1 2.776 6.824 26.523 26.523 0 0 1 1.1 7.692 19.87 19.87 0 0 1-3.066 10.93 61.512 61.512 0 0 1-7.23 9.2 72.8 72.8 0 0 1-9.54 7.926zM83.04 39.375q-1.8 5.265-3.76 11.162a62.164 62.164 0 0 0 10.873-5.494 52.482 52.482 0 0 0 7.924-6.13 28.737 28.737 0 0 0 4.858-5.9 10.19 10.19 0 0 0 1.677-5.033 1.407 1.407 0 0 1 .116-.52.518.518 0 0 0-.174-.578 2.578 2.578 0 0 0-1.272-.463 19.377 19.377 0 0 0-3.065-.175 33.52 33.52 0 0 0-6.247.694 37.034 37.034 0 0 0-7.4 2.313q-1.737 4.858-3.53 10.122zm120.7-3.065q-3.47 10.756-7 22.44t-6.94 23.6q-3.412 11.914-6.188 22.44l.115-.347q-.233 2.892-1.62 3.99a6 6 0 0 1-3.816 1.1 13.464 13.464 0 0 1-3.527-.52q-1.908-.52-4.106-1.1-2.43-1.157-4.51-2.023a23.725 23.725 0 0 1-3.7-1.91 7.79 7.79 0 0 1-2.545-2.6 7.974 7.974 0 0 1-.926-4.106 13.668 13.668 0 0 1 .58-3.585v.114q.806-4.047 2.023-9.31t2.716-11.52q-3.7.582-7.23 1.1t-7 1.1q-2.08 6.71-3.7 12.724t-2.89 11.452q-.694 2.546-1.157 4.453a15.28 15.28 0 0 1-1.1 3.18 4.552 4.552 0 0 1-1.678 1.91 5.3 5.3 0 0 1-2.776.635 12.113 12.113 0 0 1-1.562-.115 13.448 13.448 0 0 1-2.024-.463q-3.01-1.273-5.84-2.255a34.757 34.757 0 0 1-5.09-2.2 11.372 11.372 0 0 1-3.587-2.892 6.776 6.776 0 0 1-1.33-4.338 12.8 12.8 0 0 1 .81-4.164q3.01-9.02 5.957-20.183t5.84-22.787q2.892-11.625 5.553-22.845t5.09-20.473a9.7 9.7 0 0 1 2.37-3.933 5.368 5.368 0 0 1 3.645-1.157 12.756 12.756 0 0 1 3.3.694q2.256.693 4.8 1.735t5.032 2.313a31.4 31.4 0 0 1 4.222 2.545l-.116-.116a13.51 13.51 0 0 1 3.47 3.065 5.69 5.69 0 0 1 1.04 3.412 12.152 12.152 0 0 1-.693 3.817q-1.968 5.667-4.51 13.358t-5.32 16.715l5.55-.463q2.776-.23 5.32-.463h-.117l2.2-.115q3.354-11.453 6.536-22.614T183.5 5.77a8.947 8.947 0 0 1 2.43-4.28 5.707 5.707 0 0 1 3.816-1.27 12.788 12.788 0 0 1 4.164.81h-.115a47.986 47.986 0 0 1 5.436 1.965 32 32 0 0 1 5.553 3.007 22.806 22.806 0 0 1 4.28 3.7 5.88 5.88 0 0 1 1.735 3.817 11.866 11.866 0 0 1-.694 3.7q-2.898 8.33-6.365 19.09zm41.294-27.414a12.987 12.987 0 0 1 3.3 3.065 5.93 5.93 0 0 1 .983 3.414 13.213 13.213 0 0 1-.694 3.932q-1.734 4.976-3.817 11.625T240.47 45.16q-2.257 7.578-4.512 15.674t-4.4 15.9q-2.142 7.808-4.048 15.037t-3.412 13.012a10.31 10.31 0 0 1-1.793 3.644 4.248 4.248 0 0 1-3.3 1.1 10.17 10.17 0 0 1-1.388-.115 10.89 10.89 0 0 1-1.85-.462q-2.776-.927-5.437-1.85a25.436 25.436 0 0 1-4.858-2.256 11.775 11.775 0 0 1-3.528-3.18 7.525 7.525 0 0 1-1.33-4.512 13.14 13.14 0 0 1 .115-1.91c.077-.5.193-1.1.346-1.792q.694-4.51 2.082-11.277t3.24-14.632q1.848-7.865 3.99-16.367t4.222-16.54q2.082-8.037 4.048-15.094t3.586-12.03a10.725 10.725 0 0 1 2.545-4.222 5.415 5.415 0 0 1 3.7-1.214 13.22 13.22 0 0 1 3.643.636 46.723 46.723 0 0 1 4.51 1.62 45.67 45.67 0 0 1 4.57 2.2 36.653 36.653 0 0 1 3.932 2.486zm48.348 92.767q-7.287 1.736-14.98 3.24t-14.632 3.237h.116a16.3 16.3 0 0 1-3.18.752 22.827 22.827 0 0 1-2.72.174 8.873 8.873 0 0 1-4.163-.81 13.893 13.893 0 0 1-2.776-1.966v.115q-1.275-1.155-2.43-2.255t-2.544-2.6h.116l-2.315-2.313a12.708 12.708 0 0 1-2.544-3.586 10.76 10.76 0 0 1-.925-4.626 12.9 12.9 0 0 1 .116-1.677 13.38 13.38 0 0 1 .464-2.024l-.116.23q.927-4.97 2.43-11.45t3.41-13.765q1.91-7.287 4.107-15.1t4.454-15.268q2.254-7.46 4.51-14.227t4.222-12.2q2.31-5.2 6.477-5.2a19.842 19.842 0 0 1 6.42 1.272 36.31 36.31 0 0 1 6.88 3.24 29.115 29.115 0 0 1 5.5 4.22 6.375 6.375 0 0 1 2.256 4.338 6.974 6.974 0 0 1-.23 1.793 14.563 14.563 0 0 1-.81 2.14l.115-.116q-2.315 6.246-4.973 13.823t-5.32 15.9q-2.663 8.328-5.322 16.946t-5.09 16.83q4.396-.696 8.618-1.39a57.56 57.56 0 0 1 9.312-.693 8.53 8.53 0 0 1 4.684 1.156 9.675 9.675 0 0 1 3.18 3.933l-.115-.116a24.912 24.912 0 0 1 2.833 6.767 25.806 25.806 0 0 1 .984 6.3 3.47 3.47 0 0 1-1.273 3.008 15.52 15.52 0 0 1-4.628 1.85zm65.584 0q-7.288 1.736-14.98 3.24t-14.632 3.237h.116a16.314 16.314 0 0 1-3.18.752 22.84 22.84 0 0 1-2.72.174 8.873 8.873 0 0 1-4.163-.81 13.893 13.893 0 0 1-2.776-1.966v.115q-1.274-1.155-2.43-2.255t-2.543-2.6h.115l-2.313-2.313a12.712 12.712 0 0 1-2.546-3.586 10.776 10.776 0 0 1-.925-4.626 12.9 12.9 0 0 1 .115-1.677 13.364 13.364 0 0 1 .462-2.024l-.115.23q.927-4.97 2.43-11.45t3.41-13.765q1.91-7.287 4.107-15.1t4.452-15.268q2.256-7.46 4.512-14.227t4.222-12.2q2.312-5.2 6.477-5.2a19.842 19.842 0 0 1 6.42 1.272 36.31 36.31 0 0 1 6.882 3.24 29.074 29.074 0 0 1 5.494 4.22 6.372 6.372 0 0 1 2.255 4.338 6.93 6.93 0 0 1-.232 1.793 14.428 14.428 0 0 1-.81 2.14l.116-.116q-2.316 6.246-4.974 13.823t-5.32 15.9q-2.664 8.328-5.322 16.946t-5.09 16.83q4.394-.696 8.618-1.39a57.547 57.547 0 0 1 9.31-.693 8.53 8.53 0 0 1 4.686 1.156 9.675 9.675 0 0 1 3.18 3.933l-.115-.116a24.882 24.882 0 0 1 2.834 6.767 25.846 25.846 0 0 1 .983 6.3 3.47 3.47 0 0 1-1.272 3.008 15.52 15.52 0 0 1-4.627 1.85zm83.512-71.195q-3.818 6.306-8.79 13.823T423.16 59.965q-5.55 8.155-10.872 15.79-2.66 7.98-4.742 15.614t-3.817 15.153a10.322 10.322 0 0 1-1.852 3.47 4.316 4.316 0 0 1-3.354 1.158 11.434 11.434 0 0 1-3.47-.694q-2.777-.927-5.553-1.91a28.156 28.156 0 0 1-5.088-2.37 13.047 13.047 0 0 1-3.76-3.3 7.523 7.523 0 0 1-1.445-4.684 25.022 25.022 0 0 1 .983-6.42q.98-3.643 1.91-7.46l-.117.115q.808-4.047 1.908-8.5t2.373-9.195q-1.736-7.055-3.355-14.748t-3.18-15.268q-1.563-7.575-2.835-14.633T374.58 9.127a11.885 11.885 0 0 1-.347-2.89 4.213 4.213 0 0 1 2.95-4.4q2.95-1.042 9.31-1.042 1.388 0 2.835.116a18.26 18.26 0 0 1 3.18.578l-.115-.115a15.183 15.183 0 0 1 3.24 1.1 7.53 7.53 0 0 1 2.14 1.562 7.893 7.893 0 0 1 1.445 2.255q.577 1.332 1.156 3.066 1.39 5.55 3.123 12.955t3.47 15.732q5.666-8.56 11.047-17.12t10.584-17.118a5.888 5.888 0 0 1 2.37-3.008 6.415 6.415 0 0 1 3.182-.81 11.444 11.444 0 0 1 5.725 1.62 25.475 25.475 0 0 1 5.148 3.875 23.96 23.96 0 0 1 3.76 4.628 8.02 8.02 0 0 1 1.445 3.76 8.64 8.64 0 0 1-.52 2.948 24.287 24.287 0 0 1-1.447 3.18q-1.968 4.167-5.783 10.47zm-352.4 167.026a104.9 104.9 0 0 1-11.914 7.23q-6.418 3.355-13.417 6.187t-13.94 4.916q-1.97 6.94-3.875 13.59t-3.526 13.245a11.734 11.734 0 0 1-2.2 3.472 4.9 4.9 0 0 1-3.586 1.156 13.28 13.28 0 0 1-3.007-.347l-5.552-1.85a25.24 25.24 0 0 1-4.915-2.2 11.313 11.313 0 0 1-3.47-3.122 7.933 7.933 0 0 1-1.33-4.743 15.042 15.042 0 0 1 .925-4.51 47.816 47.816 0 0 0 3.18-9.66q1.676-6.766 3.47-15.383t3.644-17.87q1.85-9.254 3.644-17.12t3.528-13.244q1.736-5.38 3.24-6.19 4.392-2.2 9.54-4.452t10.643-4.106a98.582 98.582 0 0 1 10.93-3.008 50.088 50.088 0 0 1 10.41-1.156 28.424 28.424 0 0 1 8.906 1.33 16.586 16.586 0 0 1 7.056 4.57q1.85 2.08 3.875 4.8a45.325 45.325 0 0 1 3.7 5.9 38.545 38.545 0 0 1 2.776 6.824 26.518 26.518 0 0 1 1.1 7.692 19.865 19.865 0 0 1-3.066 10.93 61.462 61.462 0 0 1-7.23 9.2 72.806 72.806 0 0 1-9.54 7.92zm-26.72-20.937q-1.8 5.265-3.76 11.162a62.2 62.2 0 0 0 10.874-5.495 52.416 52.416 0 0 0 7.924-6.13 28.79 28.79 0 0 0 4.858-5.9 10.19 10.19 0 0 0 1.677-5.032 1.412 1.412 0 0 1 .117-.52.52.52 0 0 0-.174-.58 2.588 2.588 0 0 0-1.272-.462 19.53 19.53 0 0 0-3.064-.172 33.436 33.436 0 0 0-6.247.694 37.028 37.028 0 0 0-7.4 2.313q-1.738 4.86-3.53 10.12zm79.984-30.482a12.94 12.94 0 0 1 3.3 3.065 5.935 5.935 0 0 1 .983 3.412 13.214 13.214 0 0 1-.694 3.933q-1.733 4.974-3.816 11.625t-4.337 14.227q-2.256 7.577-4.512 15.673t-4.395 15.905q-2.142 7.808-4.048 15.037t-3.416 13.015a10.266 10.266 0 0 1-1.793 3.644 4.246 4.246 0 0 1-3.3 1.1 10.178 10.178 0 0 1-1.388-.115 10.76 10.76 0 0 1-1.85-.462q-2.777-.93-5.437-1.85a25.378 25.378 0 0 1-4.858-2.257 11.748 11.748 0 0 1-3.528-3.18 7.523 7.523 0 0 1-1.33-4.512 13.1 13.1 0 0 1 .115-1.908q.117-.752.347-1.793.694-4.512 2.082-11.278t3.24-14.632q1.85-7.865 3.99-16.367t4.22-16.54q2.083-8.04 4.05-15.1t3.586-12.03a10.724 10.724 0 0 1 2.544-4.222 5.42 5.42 0 0 1 3.7-1.215 13.207 13.207 0 0 1 3.643.635 46.646 46.646 0 0 1 4.51 1.62 45.673 45.673 0 0 1 4.57 2.2 36.93 36.93 0 0 1 3.932 2.487zm51.3 15.962q.288 3.355.636 7.4t.81 8.617l.925 9.2q3.007-11.682 6.19-22.556t6.187-20.01q1.85-5.667 6.94-5.668a6.83 6.83 0 0 1 1.388.173q.808.174 1.85.405 1.736.463 4.396 1.388a31.674 31.674 0 0 1 5.206 2.37 18.66 18.66 0 0 1 4.4 3.414 6.535 6.535 0 0 1 1.85 4.626 11.95 11.95 0 0 1-.173 1.967 10.754 10.754 0 0 1-.636 2.2q-1.734 5.44-3.7 12.146t-4.106 14.11q-2.142 7.4-4.28 15.153t-4.164 15.384q-2.025 7.635-3.932 14.748t-3.422 13.243l.116-.116q-1.158 5.553-6.824 5.553a22.145 22.145 0 0 1-7.345-1.273q-3.643-1.27-7-2.545a13.772 13.772 0 0 1-5.957-6.014 45.972 45.972 0 0 1-3.99-10.237q-1.622-5.957-2.835-13.244t-2.364-14.922q-1.735 6.246-3.47 12.435t-3.3 11.856q-1.562 5.67-2.89 10.758t-2.257 9.022a10.29 10.29 0 0 1-1.852 3.47 4.157 4.157 0 0 1-3.24 1.157 8.088 8.088 0 0 1-1.56-.173l-2.024-.405-1.273-.348q-2.66-.812-5.32-1.735a16.54 16.54 0 0 1-4.858-2.66l.116.115a9.628 9.628 0 0 1-3.18-3.007 7.937 7.937 0 0 1-.984-4.164 21.51 21.51 0 0 1 .463-4.164l-.116.116q.582-3.354 1.967-9.485t3.3-13.707q1.908-7.573 4.106-16.078t4.51-16.83q2.314-8.328 4.512-15.846t4.165-13.07q2.2-5.784 7.4-5.784a16.707 16.707 0 0 1 3.933.578q2.313.58 4.858 1.446t4.975 1.908q2.43 1.04 4.4 2.082h-.116a10.594 10.594 0 0 1 5.377 4.107 17.154 17.154 0 0 1 1.793 7.23q.11 2.315.4 5.667zm108.15 28.223q-2.255 1.736-4.915 3.47a21.928 21.928 0 0 1 5.783 7.808 22.562 22.562 0 0 1 2.2 9.427 18.682 18.682 0 0 1-2.37 9.6 31.9 31.9 0 0 1-7 7.98h.116a46.417 46.417 0 0 1-7.692 5.9 90.416 90.416 0 0 1-9.37 5.09q-4.916 2.316-9.89 4.164t-9.368 3.123h.116a22.85 22.85 0 0 1-6.94 1.388 10.2 10.2 0 0 1-3.817-.693 18.406 18.406 0 0 1-3.818-2.2 44.494 44.494 0 0 1-6.65-3.99 24.61 24.61 0 0 1-5.957-6.3l.115.115a36.477 36.477 0 0 1-2.545-3.875 8.94 8.94 0 0 1-.925-4.338 14.42 14.42 0 0 1 .174-2.256q.172-1.1.4-2.37 1.388-7.982 3.643-17.294t4.57-19.085q2.312-9.774 4.452-19.606t3.413-18.74a85.886 85.886 0 0 1 9.31-3.933q5.146-1.848 10.585-3.238a105.356 105.356 0 0 1 11.046-2.2 75.078 75.078 0 0 1 10.7-.81 47.755 47.755 0 0 1 12.26 1.5 17.985 17.985 0 0 1 8.79 4.857q1.85 2.082 3.587 4.453a37.5 37.5 0 0 1 3.123 5.09 29.055 29.055 0 0 1 2.2 5.783 25.122 25.122 0 0 1 .81 6.42 21.592 21.592 0 0 1-3.413 11.683 41.906 41.906 0 0 1-8.27 9.6q-2.202 1.743-4.456 3.477zm-33.717-8.675a67.68 67.68 0 0 0 10.06-4.91 61.277 61.277 0 0 0 7.693-5.38 28.827 28.827 0 0 0 4.858-4.972 7.146 7.146 0 0 0 1.678-3.817q0-.925-3.933-.926a28.592 28.592 0 0 0-6.592.926 51.552 51.552 0 0 0-8.33 2.89q-1.155 3.124-2.254 6.537t-2.256 7.113a26.393 26.393 0 0 0-.925 2.545zm-7.98 25.216q-1.16 4.05-2.257 7.635t-2.255 7.287a65.058 65.058 0 0 0 8.848-3.412 49.367 49.367 0 0 0 6.826-3.875 21.91 21.91 0 0 0 4.453-3.933 5.98 5.98 0 0 0 1.62-3.7 2.566 2.566 0 0 0-1.852-1.5 14.41 14.41 0 0 0-4.627-.578 35.732 35.732 0 0 0-10.756 2.082zm100.862 15.5l-.23-2.313q-7.87 1.158-15.443 2.37t-13.36 2.72q-1.85 3.238-3.528 7t-3.412 6.94a32.756 32.756 0 0 1-3.47 5.263 4.963 4.963 0 0 1-3.817 2.082 10.523 10.523 0 0 1-4.05-.925l-1.387-.694q-1.85-.926-3.7-1.967a21.628 21.628 0 0 1-3.3-2.255 11.8 11.8 0 0 1-2.37-2.66 5.985 5.985 0 0 1-.926-3.3 14.845 14.845 0 0 1 .29-2.776 18.64 18.64 0 0 1 1.1-3.47q3.932-8.79 9.54-19.954t11.8-22.73q6.187-11.564 12.377-22.438t11.395-18.97a19.508 19.508 0 0 1 4.684-5.032 12.25 12.25 0 0 1 7.456-2.015 56.81 56.81 0 0 1 13.36 1.33q5.378 1.332 9.427 2.718l2.082.58q3.584 1.273 4.858 3.18a8.7 8.7 0 0 1 1.272 4.916v1.27a5.957 5.957 0 0 1-.115 1.158v-.116q-.927 7.633-1.678 18.16t-1.388 22.324q-.636 11.8-1.1 24.117t-.81 23.423q0 3.7-1.388 5.09t-5.668 1.388q-3.24 0-6.015-.23a18.98 18.98 0 0 1-5.783-1.5l.115.115q-3.587-1.16-4.916-3.067t-1.562-6.535q-.346-5.665-.347-13.186zm-5.84-39.5q-3.992 6.883-8.04 14.286 3.584-.578 7.055-.926t7.056-.578q.348-6.592.694-13.07t.81-12.724q-3.586 6.134-7.578 13.015zm90.857 56.042q-7.29 1.735-14.98 3.24t-14.632 3.238h.116a16.387 16.387 0 0 1-3.18.752 23.042 23.042 0 0 1-2.72.173 8.886 8.886 0 0 1-4.163-.81 13.9 13.9 0 0 1-2.776-1.966v.115q-1.276-1.155-2.43-2.256t-2.545-2.6h.115l-2.313-2.315a12.708 12.708 0 0 1-2.545-3.585 10.78 10.78 0 0 1-.925-4.627 12.89 12.89 0 0 1 .116-1.677 13.347 13.347 0 0 1 .462-2.025l-.115.233q.927-4.973 2.43-11.452t3.41-13.763q1.91-7.287 4.107-15.095t4.454-15.268q2.256-7.46 4.512-14.228t4.222-12.2q2.31-5.205 6.477-5.205a19.87 19.87 0 0 1 6.42 1.273 36.432 36.432 0 0 1 6.883 3.24 29.074 29.074 0 0 1 5.494 4.22 6.376 6.376 0 0 1 2.256 4.34 6.966 6.966 0 0 1-.23 1.79 14.48 14.48 0 0 1-.81 2.14l.115-.114q-2.316 6.245-4.974 13.82t-5.32 15.9q-2.664 8.33-5.322 16.946t-5.09 16.83q4.394-.693 8.618-1.388a57.547 57.547 0 0 1 9.31-.694 8.53 8.53 0 0 1 4.686 1.157 9.675 9.675 0 0 1 3.18 3.934l-.115-.116a24.87 24.87 0 0 1 2.835 6.767 25.832 25.832 0 0 1 .983 6.3 3.465 3.465 0 0 1-1.274 3.01 15.543 15.543 0 0 1-4.627 1.85zm65.583 0q-7.287 1.735-14.98 3.24t-14.63 3.238h.115a16.387 16.387 0 0 1-3.18.752 23.045 23.045 0 0 1-2.72.173 8.892 8.892 0 0 1-4.164-.81 13.927 13.927 0 0 1-2.776-1.966v.115q-1.273-1.155-2.43-2.256t-2.543-2.6h.114l-2.313-2.315a12.708 12.708 0 0 1-2.544-3.585 10.78 10.78 0 0 1-.925-4.627 12.884 12.884 0 0 1 .116-1.677 13.485 13.485 0 0 1 .463-2.025l-.117.233q.928-4.973 2.43-11.452t3.412-13.763q1.908-7.287 4.106-15.095t4.454-15.268q2.256-7.46 4.51-14.228t4.223-12.2q2.313-5.205 6.478-5.205a19.868 19.868 0 0 1 6.42 1.273 36.44 36.44 0 0 1 6.882 3.24 29.106 29.106 0 0 1 5.494 4.22 6.376 6.376 0 0 1 2.257 4.34 6.924 6.924 0 0 1-.232 1.79 14.346 14.346 0 0 1-.81 2.14l.116-.114q-2.313 6.245-4.973 13.82t-5.32 15.9q-2.662 8.33-5.32 16.946t-5.09 16.83q4.394-.693 8.617-1.388a57.547 57.547 0 0 1 9.31-.694 8.534 8.534 0 0 1 4.686 1.157 9.69 9.69 0 0 1 3.18 3.934l-.115-.116a24.87 24.87 0 0 1 2.834 6.767 25.832 25.832 0 0 1 .982 6.3 3.468 3.468 0 0 1-1.274 3.01 15.555 15.555 0 0 1-4.627 1.85zM67.157 352.36a6.235 6.235 0 0 1 1.33 3.99 9.435 9.435 0 0 1-.695 3.412q-.695 1.8-1.62 3.76a42.82 42.82 0 0 1-12.723 15.73 30.81 30.81 0 0 1-19.086 6.015h-1.62a6.585 6.585 0 0 1-1.272-.115h.116a45.62 45.62 0 0 1-9.37-1.967q-4.164-1.387-7.518-2.66h.116a12.4 12.4 0 0 1-3.586-1.677 20.674 20.674 0 0 1-3.528-2.95 24.21 24.21 0 0 1-3.008-3.817 18.792 18.792 0 0 1-2.024-4.163v.23a32.5 32.5 0 0 1-2.024-7.46 56.4 56.4 0 0 1-.636-8.617 78.292 78.292 0 0 1 1.735-15.557 114.588 114.588 0 0 1 4.974-17.177 122.066 122.066 0 0 1 7.75-16.772 84.17 84.17 0 0 1 10-14.4 49.724 49.724 0 0 1 11.855-10.12 25.476 25.476 0 0 1 13.3-3.818h1.157a6.6 6.6 0 0 1 1.272.115h-.116q2.89.35 6.015 1.042a49.41 49.41 0 0 1 6.015 1.735 47.337 47.337 0 0 1 5.494 2.372 25.424 25.424 0 0 1 4.454 2.833q4.742 3.7 6.13 7.634a25.925 25.925 0 0 1 1.388 8.675q0 2.546-.23 5.494t-.695 5.84q-.465 2.895-1.1 5.61a36.1 36.1 0 0 1-1.447 4.8 1.8 1.8 0 0 0-.347.463 9.13 9.13 0 0 1-1.677 3.065q-.985 1.1-3.992 1.1h-1.272a5.428 5.428 0 0 1-1.5-.232 26.875 26.875 0 0 1-6.593-2.14 14.743 14.743 0 0 1-4.395-3.238 13.285 13.285 0 0 1-2.66-4.454 24.493 24.493 0 0 1-1.273-5.782q0-2.2.173-4.453t.174-3.99a11.522 11.522 0 0 0-.232-2.372 2.63 2.63 0 0 0-.81-1.562q-1.735.118-4.51 3.413a65.44 65.44 0 0 0-5.726 8.155q-2.95 4.86-5.726 10.584a114.886 114.886 0 0 0-4.626 10.815 91.454 91.454 0 0 0-3.586 13.3 64.164 64.164 0 0 0-1.273 11.8 22.927 22.927 0 0 0 .58 5.61 3.812 3.812 0 0 0 1.965 2.834h.463q3.585 0 11.568-8.674 5.783-6.014 13.3-6.015a19.56 19.56 0 0 1 3.3.29 27.933 27.933 0 0 1 3.528.868 8.6 8.6 0 0 1 4.34 2.6zm62.17 23.77q-7.286 1.734-14.98 3.238t-14.63 3.24h.115a16.387 16.387 0 0 1-3.18.75 23.042 23.042 0 0 1-2.72.174 8.886 8.886 0 0 1-4.163-.81 13.9 13.9 0 0 1-2.777-1.966v.12q-1.275-1.156-2.43-2.257t-2.544-2.6h.115l-2.314-2.315a12.728 12.728 0 0 1-2.544-3.585 10.78 10.78 0 0 1-.925-4.627 12.89 12.89 0 0 1 .117-1.677 13.347 13.347 0 0 1 .462-2.025l-.116.233q.927-4.973 2.43-11.452t3.41-13.763q1.91-7.287 4.107-15.1t4.455-15.268q2.254-7.462 4.51-14.23t4.223-12.2q2.312-5.2 6.477-5.2a19.87 19.87 0 0 1 6.42 1.273 36.432 36.432 0 0 1 6.882 3.24 29.074 29.074 0 0 1 5.494 4.22 6.376 6.376 0 0 1 2.257 4.332 6.98 6.98 0 0 1-.23 1.793 14.515 14.515 0 0 1-.81 2.14l.115-.116q-2.316 6.246-4.974 13.822t-5.32 15.9q-2.663 8.328-5.322 16.945t-5.09 16.83q4.395-.694 8.618-1.39a57.66 57.66 0 0 1 9.31-.693 8.53 8.53 0 0 1 4.686 1.157 9.675 9.675 0 0 1 3.18 3.933l-.115-.116a24.87 24.87 0 0 1 2.834 6.768 25.784 25.784 0 0 1 .982 6.3 3.465 3.465 0 0 1-1.272 3.007 15.543 15.543 0 0 1-4.627 1.85zm13.3-23.366a87.887 87.887 0 0 1 1.678-16.25q1.676-8.85 4.4-18.1t6.015-18.45q3.3-9.195 6.65-17.408a10.33 10.33 0 0 1 2.6-3.99 5.647 5.647 0 0 1 3.76-1.215 17.9 17.9 0 0 1 6.188 1.273 27.892 27.892 0 0 1 6.42 3.412 22.945 22.945 0 0 1 5.09 4.916 9.517 9.517 0 0 1 2.082 5.785 12.58 12.58 0 0 1-1.042 4.742l.116-.115q-2.663 6.593-5.61 14.747t-5.552 16.424q-2.6 8.273-4.28 15.73a59.025 59.025 0 0 0-1.677 12.552 16.027 16.027 0 0 0 .463 4.28q.46 1.62 1.62 1.62 2.542 0 5.378-4.223a63.44 63.44 0 0 0 5.668-11.162q2.832-6.94 5.667-15.672t5.38-17.756q2.542-9.022 4.685-17.466t3.643-14.806l-.115.232a6.685 6.685 0 0 1 2.37-4.51 7.3 7.3 0 0 1 4.338-1.274 12.637 12.637 0 0 1 3.76.637 43.457 43.457 0 0 1 4.165 1.56q2.14.928 4.28 2.083t3.99 2.2a11.327 11.327 0 0 1 3.47 3.065 6.2 6.2 0 0 1 .925 3.412 12.887 12.887 0 0 1-.115 1.678 10.58 10.58 0 0 1-.463 1.908q-3.933 16.428-7.923 30.653a264.138 264.138 0 0 1-8.444 25.502 107.94 107.94 0 0 1-9.658 19.26 38.672 38.672 0 0 1-11.452 11.912 32.392 32.392 0 0 1-7.46 2.892 34.07 34.07 0 0 1-8.155.925q-11.45 0-19.2-3.99t-11.454-13.13a39.167 39.167 0 0 1-2.2-13.88zm152.98-25.216q-2.256 1.736-4.917 3.47a21.918 21.918 0 0 1 5.784 7.808 22.562 22.562 0 0 1 2.2 9.427 18.672 18.672 0 0 1-2.372 9.6 31.854 31.854 0 0 1-7 7.98h.116a46.46 46.46 0 0 1-7.692 5.9 90.622 90.622 0 0 1-9.37 5.09q-4.917 2.316-9.89 4.165t-9.368 3.123h.108a22.844 22.844 0 0 1-6.94 1.39 10.2 10.2 0 0 1-3.817-.695 18.376 18.376 0 0 1-3.818-2.2 44.494 44.494 0 0 1-6.65-3.99 24.6 24.6 0 0 1-5.958-6.3l.116.115a36.32 36.32 0 0 1-2.545-3.875 8.94 8.94 0 0 1-.925-4.338 14.55 14.55 0 0 1 .173-2.255q.174-1.1.4-2.37 1.387-7.982 3.644-17.294t4.57-19.085q2.31-9.774 4.452-19.606t3.41-18.74a85.886 85.886 0 0 1 9.312-3.932q5.147-1.848 10.584-3.238a105.375 105.375 0 0 1 11.047-2.2 75.078 75.078 0 0 1 10.7-.81 47.755 47.755 0 0 1 12.26 1.5 17.99 17.99 0 0 1 8.792 4.858q1.85 2.082 3.586 4.453a37.7 37.7 0 0 1 3.124 5.09 28.992 28.992 0 0 1 2.2 5.783 25.078 25.078 0 0 1 .81 6.42 21.59 21.59 0 0 1-3.412 11.684 41.954 41.954 0 0 1-8.27 9.6q-2.196 1.74-4.446 3.474zm-33.723-8.673a67.73 67.73 0 0 0 10.063-4.916 61.35 61.35 0 0 0 7.692-5.38 28.865 28.865 0 0 0 4.857-4.973 7.143 7.143 0 0 0 1.677-3.817q0-.926-3.933-.926a28.606 28.606 0 0 0-6.592.926 51.577 51.577 0 0 0-8.328 2.89q-1.158 3.124-2.255 6.537t-2.256 7.113a26.127 26.127 0 0 0-.926 2.545zm-7.978 25.214q-1.156 4.05-2.255 7.633t-2.255 7.287a65.022 65.022 0 0 0 8.85-3.412 49.426 49.426 0 0 0 6.824-3.875 21.907 21.907 0 0 0 4.452-3.933 5.978 5.978 0 0 0 1.62-3.7 2.564 2.564 0 0 0-1.852-1.5 14.4 14.4 0 0 0-4.626-.578 35.732 35.732 0 0 0-10.758 2.082z"/></svg>