<?xml version="1.0" encoding="UTF-8"?>
<svg width="211px" height="97px" viewBox="0 0 211 97" version="1.1" xmlns="http://www.w3.org/2000/svg" xmlns:xlink="http://www.w3.org/1999/xlink">
    <!-- Generator: Sketch 42 (36781) - http://www.bohemiancoding.com/sketch -->
    <title>Page 1</title>
    <desc>Created with Sketch.</desc>
    <defs>
        <polygon id="path-1" points="65.913 0.537 0 0.537 0 48.76835 0 96.9997 65.913 96.9997 65.913 0.537"></polygon>
        <polygon id="path-3" points="66.3217 0.537 0.4087 0.537 0.4087 96.9997 66.3217 96.9997"></polygon>
        <polygon id="path-5" points="0.8175 97 66.729 97 66.729 0.5372 0.8175 0.5372 0.8175 97"></polygon>
    </defs>
    <g id="Page-1" stroke="none" stroke-width="1" fill="none" fill-rule="evenodd">
        <g transform="translate(0.000000, -1.000000)">
            <g id="Group-3" transform="translate(0.000000, 0.462900)">
                <mask id="mask-2" fill="white">
                    <use xlink:href="#path-1"></use>
                </mask>
                <g id="Clip-2"></g>
                <path d="M30.291,33.4277 C33.151,32.7787 35.231,33.1677 36.661,34.9887 C38.091,36.4177 38.611,38.7577 38.611,41.6177 C38.481,48.1187 36.011,52.0187 30.811,53.1887 L27.171,54.2287 L27.171,34.2077 L30.291,33.4277 Z M9.88,86.4697 L27.171,82.0497 L27.171,69.0497 L33.151,67.4897 C39.651,65.9297 45.112,62.0297 49.532,56.0487 C53.692,50.1987 55.902,43.6987 55.902,36.4177 C56.032,29.2677 54.082,23.8077 49.922,19.9067 C45.892,16.1377 40.432,15.0977 33.541,16.6567 L9.88,22.6377 L9.88,86.4697 Z M65.913,80.6197 L65.002,80.7497 L0,96.9997 L0,17.0477 L0.91,16.7867 L65.913,0.5367 L65.913,80.6197 Z" id="Fill-1" fill="#000000" mask="url(#mask-2)"></path>
            </g>
            <g id="Group-6" transform="translate(72.000000, 0.462900)">
                <mask id="mask-4" fill="white">
                    <use xlink:href="#path-3"></use>
                </mask>
                <g id="Clip-5"></g>
                <path d="M30.6997,33.4277 C33.5597,32.7787 35.6397,33.1677 37.0707,34.9887 C38.4997,36.4177 39.0197,38.7577 39.0197,41.6177 C38.8897,48.1187 36.4197,52.0187 31.2197,53.1887 L27.5797,54.2287 L27.5797,34.2077 L30.6997,33.4277 Z M10.2887,86.4697 L27.5797,82.0497 L27.5797,69.0497 L33.5597,67.4897 C40.0597,65.9297 45.5207,62.0297 49.9407,56.0487 C54.1007,50.1987 56.3107,43.6987 56.3107,36.4177 C56.4407,29.2677 54.4907,23.8077 50.3307,19.9067 C46.3007,16.1377 40.8407,15.0977 33.9497,16.6567 L10.2887,22.6377 L10.2887,86.4697 Z M66.3217,80.6197 L65.4107,80.7497 L0.4087,96.9997 L0.4087,17.0477 L1.3187,16.7867 L66.3217,0.5367 L66.3217,80.6197 Z" id="Fill-4" fill="#000000" mask="url(#mask-4)"></path>
            </g>
            <g id="Group-9" transform="translate(144.000000, 0.462900)">
                <mask id="mask-6" fill="white">
                    <use xlink:href="#path-5"></use>
                </mask>
                <g id="Clip-8"></g>
                <path d="M54.7695,56.6992 C52.1685,59.2992 49.0485,61.1192 45.4095,62.0292 C41.5085,63.0692 38.1285,62.6792 35.5285,60.8592 C32.4085,58.6492 30.8485,55.0092 30.8485,49.5492 C30.8485,44.2192 32.4085,39.6682 35.0085,36.1582 C37.3485,33.1682 40.4685,31.2182 44.3695,30.3072 C47.6195,29.5282 50.7395,29.6582 53.9895,30.4372 L55.0295,30.8282 L55.0295,13.2772 C53.3395,13.0172 51.6495,12.7582 49.9585,12.7582 C47.6195,12.7582 45.0195,13.1472 42.4185,13.6672 C36.9585,15.0972 31.7585,17.8272 27.0785,21.7272 C22.0075,25.8872 17.9785,30.9582 15.5075,36.8082 C13.0385,42.3982 11.8685,48.5092 11.8685,55.0092 C11.8685,64.2392 14.0785,71.0002 18.4985,75.5502 C21.2285,78.2792 24.7385,79.8402 28.8985,80.6202 C32.7985,81.1392 37.0885,80.8802 41.5085,79.7102 C46.7085,78.5402 51.2595,76.1992 55.1595,73.2102 L55.6795,72.8192 L55.6795,55.7892 L54.7695,56.6992 Z M0.8175,17.0482 L1.7275,16.7872 L66.7295,0.5372 L66.7295,80.6202 L65.8205,80.7502 L0.8175,97.0002 L0.8175,17.0482 Z" id="Fill-7" fill="#000000" mask="url(#mask-6)"></path>
            </g>
            <path d="M27.1709,34.6709 L30.2909,33.8909 C33.1509,33.2409 35.2319,33.6309 36.6609,35.4509 C38.0909,36.8809 38.6109,39.2209 38.6109,42.0809 C38.4819,48.5819 36.0109,52.4819 30.8109,53.6509 L27.1709,54.6919 L27.1709,34.6709 Z M27.1709,69.5129 L33.1509,67.9519 C39.6509,66.3929 45.1119,62.4919 49.5319,56.5119 C53.6919,50.6619 55.9019,44.1609 55.9019,36.8809 C56.0319,29.7309 54.0819,24.2709 49.9219,20.3699 C45.8919,16.6009 40.4319,15.5609 33.5409,17.1199 L9.8799,23.1009 L9.8799,86.9329 L27.1709,82.5129 L27.1709,69.5129 Z" id="Fill-10" fill="#FFFFFF"></path>
            <path d="M172.8984,81.083 C176.7984,81.603 181.0884,81.343 185.5084,80.173 C190.7094,79.003 195.2594,76.662 199.1594,73.673 L199.6794,73.282 L199.6794,56.252 L198.7694,57.162 C196.1694,59.762 193.0484,61.582 189.4094,62.492 C185.5084,63.532 182.1284,63.143 179.5284,61.322 C176.4084,59.112 174.8484,55.472 174.8484,50.012 C174.8484,44.682 176.4084,40.131 179.0084,36.621 C181.3484,33.631 184.4684,31.681 188.3694,30.77 C191.6194,29.991 194.7394,30.121 197.9894,30.9 L199.0294,31.291 L199.0294,13.74 C197.3394,13.48 195.6494,13.221 193.9594,13.221 C191.6194,13.221 189.0194,13.61 186.4194,14.13 C180.9594,15.561 175.7584,18.29 171.0784,22.19 C166.0074,26.351 161.9784,31.421 159.5074,37.271 C157.0384,42.861 155.8684,48.972 155.8684,55.472 C155.8684,64.702 158.0784,71.463 162.4984,76.013 C165.2284,78.742 168.7384,80.303 172.8984,81.083" id="Fill-12" fill="#FFFFFF"></path>
            <path d="M99.5796,34.6709 L102.6996,33.8909 C105.5596,33.2409 107.6406,33.6309 109.0706,35.4509 C110.4996,36.8809 111.0196,39.2209 111.0196,42.0809 C110.8906,48.5819 108.4196,52.4819 103.2196,53.6509 L99.5796,54.6919 L99.5796,34.6709 Z M99.5796,69.5129 L105.5596,67.9519 C112.0596,66.3929 117.5206,62.4919 121.9406,56.5119 C126.1006,50.6619 128.3106,44.1609 128.3106,36.8809 C128.4406,29.7309 126.4906,24.2709 122.3306,20.3699 C118.3006,16.6009 112.8406,15.5609 105.9506,17.1199 L82.2886,23.1009 L82.2886,86.9329 L99.5796,82.5129 L99.5796,69.5129 Z" id="Fill-14" fill="#FFFFFF"></path>
        </g>
    </g>
</svg>